PathFileType	4	(X/Y/Z)	D:\TRACE\spotREDO_2-26-24\spot_baseline_4-v60.trc
DataRate	CameraRate	NumFrames	NumMarkers	Units	OrigDataRate	OrigDataStartFrame	OrigNumFrames
100.00	100.00	      31	9	mm	100.00	5251	      7000
Frame#	Time	front left toe			Front right toe			aft left toe			aft right toe			Arm			FL body			FR body			AL Body			AR Body			
		X1	Y1	Z1	X2	Y2	Z2	X3	Y3	Z3	X4	Y4	Z4	X5	Y5	Z5	X6	Y6	Z6	X7	Y7	Z7	X8	Y8	Z8	X9	Y9	Z9	

5251	52.500	-199.26320	17.55451	-161.02646	325.68176	28.58612	-139.83327	-314.12112	21.60202	322.20929	208.47310	28.12205	337.57034	26.33850	810.13751	-349.45493	-59.55553	550.83301	-336.72968	95.19159	555.18292	-318.99948	-169.30949	557.71368	539.98865	-21.78033	557.69891	559.29144	
5252	52.510	-199.24419	17.46998	-160.97511	324.91235	27.95439	-140.05054	-314.13577	21.60264	322.25500	208.54877	28.12406	337.62939	26.33848	810.11041	-348.35809	-59.47057	550.67609	-335.80249	95.11346	555.17920	-318.17200	-169.53844	557.70471	540.73749	-21.85211	557.61066	559.93903	
5253	52.520	-199.20268	17.43417	-160.89877	324.96185	28.03072	-140.01724	-314.06070	21.52792	322.35120	208.57211	28.17137	337.73965	26.36736	810.03900	-347.91321	-59.51461	550.64777	-335.09998	95.14381	555.26196	-317.52158	-169.50713	557.65887	541.65399	-21.70049	557.48187	560.69659	
5254	52.530	-199.20265	17.39457	-160.82253	324.84329	27.95497	-140.04324	-314.09088	21.51089	322.41214	208.58818	28.07457	337.74030	26.18602	810.10425	-346.96219	-59.73824	550.71570	-334.41620	95.21544	555.28442	-316.71109	-169.33391	557.69647	542.39520	-21.81816	557.50610	561.46906	
5255	52.540	-199.24768	17.50956	-160.77039	325.56955	28.53966	-139.70081	-314.08313	21.55256	322.39709	208.57140	28.08528	337.78915	26.05263	810.25830	-346.41138	-59.79510	550.76556	-333.57819	94.88445	555.31390	-315.97397	-169.25339	557.81512	543.11633	-21.75308	557.53015	562.18518	
5256	52.550	-199.25043	17.54383	-160.69879	325.52835	28.63522	-139.68675	-314.04517	21.56489	322.46701	208.60754	28.17022	337.83554	26.11058	810.17328	-345.55951	-59.73583	550.70514	-332.84531	94.86383	555.28973	-315.31741	-169.36443	557.91425	543.82703	-21.71412	557.62793	562.93689	
5257	52.560	-199.24323	17.51040	-160.65239	325.46753	28.63283	-139.70564	-314.06207	21.55742	322.51465	208.58182	28.08096	337.88519	26.10394	810.22858	-344.66599	-59.95444	550.70648	-332.24994	94.78413	555.33716	-314.52527	-169.49648	557.97321	544.56677	-21.82147	557.75256	563.81610	
5258	52.570	-199.24632	17.45345	-160.58257	324.68561	28.11886	-139.84671	-314.09985	21.56980	322.54541	208.57767	28.14030	337.89111	25.77856	810.22620	-344.36530	-60.22144	550.81866	-331.55554	94.88460	555.16864	-313.74472	-169.60626	557.93378	545.36633	-21.67021	557.69257	564.42773	
5259	52.580	-199.21242	17.41971	-160.52744	324.76865	28.11924	-139.76376	-314.04984	21.51692	322.56763	208.66980	28.09238	337.90530	25.87148	810.24609	-343.40891	-59.96690	550.66876	-330.45667	94.73997	555.23181	-312.89978	-169.67165	557.94788	546.10767	-21.77796	557.81616	565.18665	
5260	52.590	-199.22540	17.48949	-160.49710	324.80188	28.13386	-139.75516	-314.05304	21.53190	322.59586	208.65358	28.07703	337.96844	25.68754	810.16718	-342.52426	-60.14450	550.75488	-329.88171	94.52439	555.20905	-312.33426	-169.51306	558.08044	546.87939	-21.85221	557.95258	565.96820	
5261	52.600	-199.26044	17.55602	-160.43820	325.38620	28.66092	-139.55426	-314.07126	21.56123	322.65057	208.70323	28.14610	338.02505	25.58438	810.13873	-342.07684	-60.48338	550.89972	-329.30734	94.28072	555.24493	-311.67987	-169.60847	558.29974	547.59058	-21.77144	557.93719	566.70709	
5262	52.610	-199.25987	17.59092	-160.43112	325.41284	28.71408	-139.52623	-314.08087	21.55319	322.63123	208.70949	28.11237	338.04041	25.50632	810.14862	-341.26993	-60.42805	550.74927	-328.25293	94.45248	555.21313	-310.61053	-169.84654	558.45648	548.39294	-21.97399	558.09558	567.58856	
5263	52.620	-199.33179	17.58268	-160.44585	325.21869	28.65984	-139.51556	-314.14175	21.56341	322.71585	208.06572	27.42110	337.51691	25.66882	810.04388	-340.44925	-60.23140	550.66760	-327.53391	94.26372	555.13586	-310.04120	-169.79895	558.43323	549.24573	-22.00243	558.14795	568.21863	
5264	52.630	-199.34068	17.59208	-160.43454	324.43802	28.11381	-139.68137	-314.10849	21.53467	322.68619	207.99493	27.27095	337.39627	25.43578	809.94702	-339.87546	-60.45895	550.61536	-326.88992	94.35554	555.08002	-309.25061	-169.81903	558.50323	549.92426	-21.85105	558.17346	569.00458	
5265	52.640	-199.33467	17.61106	-160.40288	324.69626	28.24356	-139.56586	-314.08847	21.53707	322.69470	208.21748	27.58135	337.66064	25.40542	809.91248	-339.02875	-60.53841	550.68585	-326.19321	94.10226	554.98334	-308.54596	-170.01593	558.72559	550.52264	-22.12736	558.34509	569.83984	
5266	52.650	-199.27954	17.61210	-160.33946	324.60855	28.22320	-139.57068	-314.09836	21.53628	322.74725	208.11572	27.61367	337.71091	25.38575	809.92273	-338.44659	-60.51616	550.64178	-325.27759	94.03407	554.97607	-307.80563	-169.89203	558.82001	551.37799	-22.29492	558.43304	570.59235	
5267	52.660	-199.37947	17.67611	-160.28790	324.50507	28.12616	-139.56143	-314.13330	21.60675	322.78394	208.11388	27.61956	337.76584	25.47238	809.88660	-337.56516	-60.71366	550.71600	-324.59515	94.05623	554.98981	-306.80566	-169.84265	558.84528	552.35895	-22.15774	558.45331	571.26917	
5268	52.670	-199.35913	17.67913	-160.27875	324.56223	28.15465	-139.52156	-314.18228	21.58576	322.83038	208.11430	27.64061	337.76315	25.13331	809.87024	-336.80435	-60.86131	550.72900	-323.79276	93.97820	554.99384	-306.25763	-170.19398	558.89636	553.00085	-22.44006	558.67712	572.09473	
5269	52.680	-199.36977	17.67494	-160.25830	324.31735	28.07014	-139.61012	-314.18555	21.60730	322.83240	208.12517	27.62933	337.79337	25.05068	809.88208	-336.29153	-60.91576	550.64740	-323.04877	93.89335	555.01331	-305.39319	-170.42784	559.04425	553.74225	-22.64635	558.68811	572.86621	
5270	52.690	-199.39816	17.69777	-160.24451	324.40268	28.14994	-139.58112	-314.16864	21.59644	322.83163	208.12939	27.65122	337.83975	25.29247	809.75079	-335.23627	-60.83693	550.63800	-322.36258	93.98291	555.07391	-304.52588	-170.53662	558.91125	554.33325	-22.47346	558.68237	573.59967	
5271	52.700	-199.48114	17.81063	-160.12878	324.42883	28.17626	-139.48735	-314.18222	21.60155	322.86969	208.14655	27.69368	337.86444	25.18525	809.87604	-334.63736	-60.88611	550.63458	-321.50705	93.61031	555.05402	-303.97815	-170.60228	558.97333	555.17090	-22.69996	558.73175	574.32996	
5272	52.710	-199.53134	17.87933	-160.08405	324.16370	28.08064	-139.58264	-314.24741	21.64398	322.90466	208.23216	27.70356	337.98300	25.00653	809.91052	-333.93958	-61.27479	550.71228	-320.85529	93.51675	555.05933	-303.09189	-170.74083	558.97571	556.01007	-22.88307	558.71155	575.12537	
5273	52.720	-199.51804	17.87113	-159.99756	324.35745	28.16265	-139.48726	-314.25107	21.62013	322.96106	208.24583	27.80430	338.04938	24.93801	809.84735	-333.00479	-61.19622	550.62524	-320.04919	93.47478	555.10730	-302.47623	-170.75124	559.12927	556.70331	-22.77221	558.78741	575.96387	
5274	52.730	-199.52534	17.84401	-159.98451	324.31033	28.11115	-139.44923	-314.21301	21.64796	322.98071	208.29160	27.88841	338.14545	25.05292	809.75909	-332.40845	-61.25920	550.55865	-319.30399	93.53384	554.98596	-301.62918	-170.78253	559.25439	557.50586	-22.98076	558.82184	576.44836	
5275	52.740	-199.53253	17.83783	-159.92340	324.21933	28.07457	-139.45418	-314.23981	21.60559	323.02884	208.27380	27.87591	338.13040	24.76184	809.71783	-331.65936	-61.45313	550.53229	-318.58591	93.50394	554.91620	-300.82288	-170.80072	559.25140	558.33337	-23.11793	558.81451	577.33752	
5276	52.750	-199.53871	17.76148	-159.89792	324.02713	28.27537	-139.47656	-314.23358	21.74269	323.05823	208.36050	27.74782	338.25772	24.41361	809.74707	-331.00351	-61.39872	550.56494	-317.75873	93.36472	554.80298	-300.16199	-170.76582	558.99500	559.03790	-23.10859	558.82123	578.11383	
5277	52.760	-199.60994	17.37877	-159.87395	322.27994	33.83454	-137.82108	-314.30389	22.02534	323.45178	208.45093	27.19288	338.24606	25.00059	809.54712	-330.05649	-61.45454	550.79285	-317.14029	93.05845	554.64850	-299.70654	-170.77118	559.04736	559.66797	-23.00911	558.60394	578.66595	
5278	52.770	-199.82614	17.30360	-159.60059	319.52728	45.03599	-133.97995	-314.50287	22.13475	323.56183	208.29126	27.15752	338.34589	25.44101	809.47821	-329.36981	-61.98186	550.80334	-316.59579	92.75260	554.13855	-299.14182	-170.52168	559.15393	560.32843	-22.37519	558.36884	579.58820	
5279	52.780	-199.88901	17.23591	-159.50955	316.47342	56.00010	-129.81296	-314.54132	22.15470	323.56390	208.15158	27.23476	338.37872	25.84193	809.32214	-329.05423	-62.22546	550.40021	-315.96603	92.89363	553.78912	-298.55026	-170.66263	559.42859	560.78418	-22.69663	558.44574	579.80377	
5280	52.790	-199.81754	17.26503	-159.55981	316.31055	68.18777	-129.03224	-314.52835	22.18913	323.56723	208.10544	27.41496	338.42676	25.97105	808.77350	-328.66214	-62.21150	550.12512	-315.57965	93.02759	553.27631	-297.74313	-170.65213	559.59741	561.39801	-22.81319	558.58221	580.77740	
5281	52.800	-199.59937	17.29712	-159.64159	317.07047	80.32329	-130.57109	-314.50665	22.06123	323.49768	207.92555	27.57930	338.53354	25.92018	808.36011	-328.37009	-61.62231	549.54138	-314.63501	93.09263	553.06641	-297.25702	-171.27129	559.90198	561.96295	-23.23718	558.89160	581.35162	
